M48
; DRILL file {KiCad (6.0.9)} date Thu Dec  8 09:40:30 2022
; FORMAT={-:-/ absolute / metric / decimal}
; #@! TF.CreationDate,2022-12-08T09:40:30+09:00
; #@! TF.GenerationSoftware,Kicad,Pcbnew,(6.0.9)
; #@! TF.FileFunction,MixedPlating,1,2
FMAT,2
METRIC
; #@! TA.AperFunction,Plated,PTH,ViaDrill
T1C0.400
; #@! TA.AperFunction,Plated,PTH,ComponentDrill
T2C0.750
; #@! TA.AperFunction,Plated,PTH,ComponentDrill
T3C0.800
; #@! TA.AperFunction,Plated,PTH,ComponentDrill
T4C0.900
; #@! TA.AperFunction,Plated,PTH,ComponentDrill
T5C1.000
; #@! TA.AperFunction,NonPlated,NPTH,ComponentDrill
T6C1.000
; #@! TA.AperFunction,NonPlated,NPTH,ComponentDrill
T7C2.200
; #@! TA.AperFunction,NonPlated,NPTH,ComponentDrill
T8C2.300
; #@! TA.AperFunction,NonPlated,NPTH,ComponentDrill
T9C3.200
%
G90
G05
T1
X10.395Y45.955
X10.395Y2.775
X23.73Y31.985
X23.73Y26.905
X25.635Y15.475
X38.335Y3.41
X38.97Y44.685
X44.05Y30.715
X47.86Y30.715
T2
X27.78Y44.665
X29.05Y45.935
X30.32Y44.665
T3
X13.915Y45.0
X13.915Y40.0
X13.915Y30.0
X13.915Y11.5
X13.925Y23.75
X13.925Y21.21
X13.925Y18.67
X13.925Y16.13
X13.965Y35.0
X13.99Y6.5
X21.535Y45.0
X21.535Y40.0
X21.535Y30.0
X21.535Y11.5
X21.545Y23.75
X21.545Y21.21
X21.545Y18.67
X21.545Y16.13
X21.585Y35.0
X21.61Y6.5
X25.24Y35.0
X25.29Y30.0
X25.375Y23.75
X25.375Y21.25
X32.86Y35.0
X32.91Y30.0
T4
X38.56Y35.55
X38.56Y33.51
X38.56Y31.47
X38.56Y19.65
X38.56Y17.61
X38.56Y15.57
X41.1Y34.53
X41.1Y32.49
X41.1Y30.45
X41.1Y18.63
X41.1Y16.59
X41.1Y14.55
T5
X4.73Y42.78
X4.73Y40.24
X4.73Y37.7
X4.73Y35.16
X4.73Y32.62
X4.73Y30.08
X4.73Y27.54
X4.73Y25.0
X4.73Y22.46
X4.73Y19.92
X4.73Y17.38
X4.73Y14.84
X4.73Y12.3
X4.73Y9.76
X4.73Y7.22
X7.27Y42.78
X7.27Y40.24
X7.27Y37.7
X7.27Y35.16
X7.27Y32.62
X7.27Y30.08
X7.27Y27.54
X7.27Y25.0
X7.27Y22.46
X7.27Y19.92
X7.27Y17.38
X7.27Y14.84
X7.27Y12.3
X7.27Y9.76
X7.27Y7.22
T6
X6.0Y41.51
X6.0Y38.97
X6.0Y11.03
X6.0Y8.49
T7
X7.0Y47.0
X7.0Y3.0
X43.0Y47.0
X43.0Y3.0
T8
X43.4Y39.0
X43.4Y27.0
X43.4Y23.1
X43.4Y11.1
T9
X3.0Y47.0
X3.0Y3.0
X47.0Y47.0
X47.0Y3.0
T0
M30
