G04 #@! TF.GenerationSoftware,KiCad,Pcbnew,(6.0.9)*
G04 #@! TF.CreationDate,2022-12-08T09:40:08+09:00*
G04 #@! TF.ProjectId,M5StackLocoNetModule,4d355374-6163-46b4-9c6f-636f4e65744d,rev?*
G04 #@! TF.SameCoordinates,PX6146580PY90f5600*
G04 #@! TF.FileFunction,Legend,Bot*
G04 #@! TF.FilePolarity,Positive*
%FSLAX46Y46*%
G04 Gerber Fmt 4.6, Leading zero omitted, Abs format (unit mm)*
G04 Created by KiCad (PCBNEW (6.0.9)) date 2022-12-08 09:40:08*
%MOMM*%
%LPD*%
G01*
G04 APERTURE LIST*
%ADD10C,0.350000*%
%ADD11C,0.150000*%
%ADD12C,0.120000*%
G04 APERTURE END LIST*
D10*
X41115357Y7728929D02*
X41115357Y9228929D01*
X40615357Y8157500D01*
X40115357Y9228929D01*
X40115357Y7728929D01*
X38686785Y9228929D02*
X39401071Y9228929D01*
X39472500Y8514643D01*
X39401071Y8586072D01*
X39258214Y8657500D01*
X38901071Y8657500D01*
X38758214Y8586072D01*
X38686785Y8514643D01*
X38615357Y8371786D01*
X38615357Y8014643D01*
X38686785Y7871786D01*
X38758214Y7800358D01*
X38901071Y7728929D01*
X39258214Y7728929D01*
X39401071Y7800358D01*
X39472500Y7871786D01*
X38043928Y7800358D02*
X37829642Y7728929D01*
X37472500Y7728929D01*
X37329642Y7800358D01*
X37258214Y7871786D01*
X37186785Y8014643D01*
X37186785Y8157500D01*
X37258214Y8300358D01*
X37329642Y8371786D01*
X37472500Y8443215D01*
X37758214Y8514643D01*
X37901071Y8586072D01*
X37972500Y8657500D01*
X38043928Y8800358D01*
X38043928Y8943215D01*
X37972500Y9086072D01*
X37901071Y9157500D01*
X37758214Y9228929D01*
X37401071Y9228929D01*
X37186785Y9157500D01*
X36758214Y8728929D02*
X36186785Y8728929D01*
X36543928Y9228929D02*
X36543928Y7943215D01*
X36472500Y7800358D01*
X36329642Y7728929D01*
X36186785Y7728929D01*
X35043928Y7728929D02*
X35043928Y8514643D01*
X35115357Y8657500D01*
X35258214Y8728929D01*
X35543928Y8728929D01*
X35686785Y8657500D01*
X35043928Y7800358D02*
X35186785Y7728929D01*
X35543928Y7728929D01*
X35686785Y7800358D01*
X35758214Y7943215D01*
X35758214Y8086072D01*
X35686785Y8228929D01*
X35543928Y8300358D01*
X35186785Y8300358D01*
X35043928Y8371786D01*
X33686785Y7800358D02*
X33829642Y7728929D01*
X34115357Y7728929D01*
X34258214Y7800358D01*
X34329642Y7871786D01*
X34401071Y8014643D01*
X34401071Y8443215D01*
X34329642Y8586072D01*
X34258214Y8657500D01*
X34115357Y8728929D01*
X33829642Y8728929D01*
X33686785Y8657500D01*
X33043928Y7728929D02*
X33043928Y9228929D01*
X32901071Y8300358D02*
X32472500Y7728929D01*
X32472500Y8728929D02*
X33043928Y8157500D01*
X40401071Y5313929D02*
X41115357Y5313929D01*
X41115357Y6813929D01*
X39686785Y5313929D02*
X39829642Y5385358D01*
X39901071Y5456786D01*
X39972500Y5599643D01*
X39972500Y6028215D01*
X39901071Y6171072D01*
X39829642Y6242500D01*
X39686785Y6313929D01*
X39472500Y6313929D01*
X39329642Y6242500D01*
X39258214Y6171072D01*
X39186785Y6028215D01*
X39186785Y5599643D01*
X39258214Y5456786D01*
X39329642Y5385358D01*
X39472500Y5313929D01*
X39686785Y5313929D01*
X37901071Y5385358D02*
X38043928Y5313929D01*
X38329642Y5313929D01*
X38472500Y5385358D01*
X38543928Y5456786D01*
X38615357Y5599643D01*
X38615357Y6028215D01*
X38543928Y6171072D01*
X38472500Y6242500D01*
X38329642Y6313929D01*
X38043928Y6313929D01*
X37901071Y6242500D01*
X37043928Y5313929D02*
X37186785Y5385358D01*
X37258214Y5456786D01*
X37329642Y5599643D01*
X37329642Y6028215D01*
X37258214Y6171072D01*
X37186785Y6242500D01*
X37043928Y6313929D01*
X36829642Y6313929D01*
X36686785Y6242500D01*
X36615357Y6171072D01*
X36543928Y6028215D01*
X36543928Y5599643D01*
X36615357Y5456786D01*
X36686785Y5385358D01*
X36829642Y5313929D01*
X37043928Y5313929D01*
X35901071Y5313929D02*
X35901071Y6813929D01*
X35043928Y5313929D01*
X35043928Y6813929D01*
X33758214Y5385358D02*
X33901071Y5313929D01*
X34186785Y5313929D01*
X34329642Y5385358D01*
X34401071Y5528215D01*
X34401071Y6099643D01*
X34329642Y6242500D01*
X34186785Y6313929D01*
X33901071Y6313929D01*
X33758214Y6242500D01*
X33686785Y6099643D01*
X33686785Y5956786D01*
X34401071Y5813929D01*
X33258214Y6313929D02*
X32686785Y6313929D01*
X33043928Y6813929D02*
X33043928Y5528215D01*
X32972500Y5385358D01*
X32829642Y5313929D01*
X32686785Y5313929D01*
X31043928Y5313929D02*
X31043928Y6813929D01*
X30543928Y5742500D01*
X30043928Y6813929D01*
X30043928Y5313929D01*
X29115357Y5313929D02*
X29258214Y5385358D01*
X29329642Y5456786D01*
X29401071Y5599643D01*
X29401071Y6028215D01*
X29329642Y6171072D01*
X29258214Y6242500D01*
X29115357Y6313929D01*
X28901071Y6313929D01*
X28758214Y6242500D01*
X28686785Y6171072D01*
X28615357Y6028215D01*
X28615357Y5599643D01*
X28686785Y5456786D01*
X28758214Y5385358D01*
X28901071Y5313929D01*
X29115357Y5313929D01*
X27329642Y5313929D02*
X27329642Y6813929D01*
X27329642Y5385358D02*
X27472500Y5313929D01*
X27758214Y5313929D01*
X27901071Y5385358D01*
X27972500Y5456786D01*
X28043928Y5599643D01*
X28043928Y6028215D01*
X27972500Y6171072D01*
X27901071Y6242500D01*
X27758214Y6313929D01*
X27472500Y6313929D01*
X27329642Y6242500D01*
X25972500Y6313929D02*
X25972500Y5313929D01*
X26615357Y6313929D02*
X26615357Y5528215D01*
X26543928Y5385358D01*
X26401071Y5313929D01*
X26186785Y5313929D01*
X26043928Y5385358D01*
X25972500Y5456786D01*
X25043928Y5313929D02*
X25186785Y5385358D01*
X25258214Y5528215D01*
X25258214Y6813929D01*
X23901071Y5385358D02*
X24043928Y5313929D01*
X24329642Y5313929D01*
X24472500Y5385358D01*
X24543928Y5528215D01*
X24543928Y6099643D01*
X24472500Y6242500D01*
X24329642Y6313929D01*
X24043928Y6313929D01*
X23901071Y6242500D01*
X23829642Y6099643D01*
X23829642Y5956786D01*
X24543928Y5813929D01*
D11*
X30852380Y3147620D02*
X30852380Y4147620D01*
X30757142Y3528572D02*
X30471428Y3147620D01*
X30471428Y3814286D02*
X30852380Y3433334D01*
X29614285Y3814286D02*
X29614285Y3004762D01*
X29661904Y2909524D01*
X29709523Y2861905D01*
X29804761Y2814286D01*
X29947619Y2814286D01*
X30042857Y2861905D01*
X29614285Y3195239D02*
X29709523Y3147620D01*
X29900000Y3147620D01*
X29995238Y3195239D01*
X30042857Y3242858D01*
X30090476Y3338096D01*
X30090476Y3623810D01*
X30042857Y3719048D01*
X29995238Y3766667D01*
X29900000Y3814286D01*
X29709523Y3814286D01*
X29614285Y3766667D01*
X29138095Y3147620D02*
X29138095Y4147620D01*
X28709523Y3147620D02*
X28709523Y3671429D01*
X28757142Y3766667D01*
X28852380Y3814286D01*
X28995238Y3814286D01*
X29090476Y3766667D01*
X29138095Y3719048D01*
X28042857Y4147620D02*
X27947619Y4147620D01*
X27852380Y4100000D01*
X27804761Y4052381D01*
X27757142Y3957143D01*
X27709523Y3766667D01*
X27709523Y3528572D01*
X27757142Y3338096D01*
X27804761Y3242858D01*
X27852380Y3195239D01*
X27947619Y3147620D01*
X28042857Y3147620D01*
X28138095Y3195239D01*
X28185714Y3242858D01*
X28233333Y3338096D01*
X28280952Y3528572D01*
X28280952Y3766667D01*
X28233333Y3957143D01*
X28185714Y4052381D01*
X28138095Y4100000D01*
X28042857Y4147620D01*
X27328571Y4052381D02*
X27280952Y4100000D01*
X27185714Y4147620D01*
X26947619Y4147620D01*
X26852380Y4100000D01*
X26804761Y4052381D01*
X26757142Y3957143D01*
X26757142Y3861905D01*
X26804761Y3719048D01*
X27376190Y3147620D01*
X26757142Y3147620D01*
X26138095Y4147620D02*
X26042857Y4147620D01*
X25947619Y4100000D01*
X25900000Y4052381D01*
X25852380Y3957143D01*
X25804761Y3766667D01*
X25804761Y3528572D01*
X25852380Y3338096D01*
X25900000Y3242858D01*
X25947619Y3195239D01*
X26042857Y3147620D01*
X26138095Y3147620D01*
X26233333Y3195239D01*
X26280952Y3242858D01*
X26328571Y3338096D01*
X26376190Y3528572D01*
X26376190Y3766667D01*
X26328571Y3957143D01*
X26280952Y4052381D01*
X26233333Y4100000D01*
X26138095Y4147620D01*
X24852380Y3147620D02*
X25423809Y3147620D01*
X25138095Y3147620D02*
X25138095Y4147620D01*
X25233333Y4004762D01*
X25328571Y3909524D01*
X25423809Y3861905D01*
X24519047Y4147620D02*
X23852380Y4147620D01*
X24280952Y3147620D01*
D12*
X1997714Y27978096D02*
X1502476Y27978096D01*
X1769142Y27673334D01*
X1654857Y27673334D01*
X1578666Y27635239D01*
X1540571Y27597143D01*
X1502476Y27520953D01*
X1502476Y27330477D01*
X1540571Y27254286D01*
X1578666Y27216191D01*
X1654857Y27178096D01*
X1883428Y27178096D01*
X1959619Y27216191D01*
X1997714Y27254286D01*
X1921523Y11938096D02*
X1921523Y12738096D01*
X1921523Y12357143D02*
X1464380Y12357143D01*
X1464380Y11938096D02*
X1464380Y12738096D01*
X1083428Y11938096D02*
X1083428Y12738096D01*
X778666Y12738096D01*
X702476Y12700000D01*
X664380Y12661905D01*
X626285Y12585715D01*
X626285Y12471429D01*
X664380Y12395239D01*
X702476Y12357143D01*
X778666Y12319048D01*
X1083428Y12319048D01*
X1502476Y24638096D02*
X1959619Y24638096D01*
X1731047Y24638096D02*
X1731047Y25438096D01*
X1807238Y25323810D01*
X1883428Y25247620D01*
X1959619Y25209524D01*
X816761Y25438096D02*
X969142Y25438096D01*
X1045333Y25400000D01*
X1083428Y25361905D01*
X1159619Y25247620D01*
X1197714Y25095239D01*
X1197714Y24790477D01*
X1159619Y24714286D01*
X1121523Y24676191D01*
X1045333Y24638096D01*
X892952Y24638096D01*
X816761Y24676191D01*
X778666Y24714286D01*
X740571Y24790477D01*
X740571Y24980953D01*
X778666Y25057143D01*
X816761Y25095239D01*
X892952Y25133334D01*
X1045333Y25133334D01*
X1121523Y25095239D01*
X1159619Y25057143D01*
X1197714Y24980953D01*
X11259428Y32981905D02*
X11221333Y33020000D01*
X11145142Y33058096D01*
X10954666Y33058096D01*
X10878476Y33020000D01*
X10840380Y32981905D01*
X10802285Y32905715D01*
X10802285Y32829524D01*
X10840380Y32715239D01*
X11297523Y32258096D01*
X10802285Y32258096D01*
X10116571Y33058096D02*
X10268952Y33058096D01*
X10345142Y33020000D01*
X10383238Y32981905D01*
X10459428Y32867620D01*
X10497523Y32715239D01*
X10497523Y32410477D01*
X10459428Y32334286D01*
X10421333Y32296191D01*
X10345142Y32258096D01*
X10192761Y32258096D01*
X10116571Y32296191D01*
X10078476Y32334286D01*
X10040380Y32410477D01*
X10040380Y32600953D01*
X10078476Y32677143D01*
X10116571Y32715239D01*
X10192761Y32753334D01*
X10345142Y32753334D01*
X10421333Y32715239D01*
X10459428Y32677143D01*
X10497523Y32600953D01*
X11297523Y12738096D02*
X10802285Y12738096D01*
X11068952Y12433334D01*
X10954666Y12433334D01*
X10878476Y12395239D01*
X10840380Y12357143D01*
X10802285Y12280953D01*
X10802285Y12090477D01*
X10840380Y12014286D01*
X10878476Y11976191D01*
X10954666Y11938096D01*
X11183238Y11938096D01*
X11259428Y11976191D01*
X11297523Y12014286D01*
X10116571Y12471429D02*
X10116571Y11938096D01*
X10307047Y12776191D02*
X10497523Y12204762D01*
X10002285Y12204762D01*
X1959619Y22821905D02*
X1921523Y22860000D01*
X1845333Y22898096D01*
X1654857Y22898096D01*
X1578666Y22860000D01*
X1540571Y22821905D01*
X1502476Y22745715D01*
X1502476Y22669524D01*
X1540571Y22555239D01*
X1997714Y22098096D01*
X1502476Y22098096D01*
X740571Y22098096D02*
X1197714Y22098096D01*
X969142Y22098096D02*
X969142Y22898096D01*
X1045333Y22783810D01*
X1121523Y22707620D01*
X1197714Y22669524D01*
X1921523Y9398096D02*
X1921523Y10198096D01*
X1921523Y9817143D02*
X1464380Y9817143D01*
X1464380Y9398096D02*
X1464380Y10198096D01*
X1083428Y9398096D02*
X1083428Y10198096D01*
X778666Y10198096D01*
X702476Y10160000D01*
X664380Y10121905D01*
X626285Y10045715D01*
X626285Y9931429D01*
X664380Y9855239D01*
X702476Y9817143D01*
X778666Y9779048D01*
X1083428Y9779048D01*
X1959619Y20281905D02*
X1921523Y20320000D01*
X1845333Y20358096D01*
X1654857Y20358096D01*
X1578666Y20320000D01*
X1540571Y20281905D01*
X1502476Y20205715D01*
X1502476Y20129524D01*
X1540571Y20015239D01*
X1997714Y19558096D01*
X1502476Y19558096D01*
X1502476Y38100000D02*
X1578666Y38138096D01*
X1692952Y38138096D01*
X1807238Y38100000D01*
X1883428Y38023810D01*
X1921523Y37947620D01*
X1959619Y37795239D01*
X1959619Y37680953D01*
X1921523Y37528572D01*
X1883428Y37452381D01*
X1807238Y37376191D01*
X1692952Y37338096D01*
X1616761Y37338096D01*
X1502476Y37376191D01*
X1464380Y37414286D01*
X1464380Y37680953D01*
X1616761Y37680953D01*
X10078476Y20358096D02*
X10459428Y20358096D01*
X10497523Y19977143D01*
X10459428Y20015239D01*
X10383238Y20053334D01*
X10192761Y20053334D01*
X10116571Y20015239D01*
X10078476Y19977143D01*
X10040380Y19900953D01*
X10040380Y19710477D01*
X10078476Y19634286D01*
X10116571Y19596191D01*
X10192761Y19558096D01*
X10383238Y19558096D01*
X10459428Y19596191D01*
X10497523Y19634286D01*
X11259428Y35521905D02*
X11221333Y35560000D01*
X11145142Y35598096D01*
X10954666Y35598096D01*
X10878476Y35560000D01*
X10840380Y35521905D01*
X10802285Y35445715D01*
X10802285Y35369524D01*
X10840380Y35255239D01*
X11297523Y34798096D01*
X10802285Y34798096D01*
X10078476Y35598096D02*
X10459428Y35598096D01*
X10497523Y35217143D01*
X10459428Y35255239D01*
X10383238Y35293334D01*
X10192761Y35293334D01*
X10116571Y35255239D01*
X10078476Y35217143D01*
X10040380Y35140953D01*
X10040380Y34950477D01*
X10078476Y34874286D01*
X10116571Y34836191D01*
X10192761Y34798096D01*
X10383238Y34798096D01*
X10459428Y34836191D01*
X10497523Y34874286D01*
X11297523Y40678096D02*
X10802285Y40678096D01*
X11068952Y40373334D01*
X10954666Y40373334D01*
X10878476Y40335239D01*
X10840380Y40297143D01*
X10802285Y40220953D01*
X10802285Y40030477D01*
X10840380Y39954286D01*
X10878476Y39916191D01*
X10954666Y39878096D01*
X11183238Y39878096D01*
X11259428Y39916191D01*
X11297523Y39954286D01*
X10116571Y40678096D02*
X10268952Y40678096D01*
X10345142Y40640000D01*
X10383238Y40601905D01*
X10459428Y40487620D01*
X10497523Y40335239D01*
X10497523Y40030477D01*
X10459428Y39954286D01*
X10421333Y39916191D01*
X10345142Y39878096D01*
X10192761Y39878096D01*
X10116571Y39916191D01*
X10078476Y39954286D01*
X10040380Y40030477D01*
X10040380Y40220953D01*
X10078476Y40297143D01*
X10116571Y40335239D01*
X10192761Y40373334D01*
X10345142Y40373334D01*
X10421333Y40335239D01*
X10459428Y40297143D01*
X10497523Y40220953D01*
X11983238Y30518096D02*
X11488000Y30518096D01*
X11754666Y30213334D01*
X11640380Y30213334D01*
X11564190Y30175239D01*
X11526095Y30137143D01*
X11488000Y30060953D01*
X11488000Y29870477D01*
X11526095Y29794286D01*
X11564190Y29756191D01*
X11640380Y29718096D01*
X11868952Y29718096D01*
X11945142Y29756191D01*
X11983238Y29794286D01*
X11259428Y30518096D02*
X10992761Y29718096D01*
X10726095Y30518096D01*
X10535619Y30518096D02*
X10040380Y30518096D01*
X10307047Y30213334D01*
X10192761Y30213334D01*
X10116571Y30175239D01*
X10078476Y30137143D01*
X10040380Y30060953D01*
X10040380Y29870477D01*
X10078476Y29794286D01*
X10116571Y29756191D01*
X10192761Y29718096D01*
X10421333Y29718096D01*
X10497523Y29756191D01*
X10535619Y29794286D01*
X1502476Y29718096D02*
X1959619Y29718096D01*
X1731047Y29718096D02*
X1731047Y30518096D01*
X1807238Y30403810D01*
X1883428Y30327620D01*
X1959619Y30289524D01*
X1045333Y30175239D02*
X1121523Y30213334D01*
X1159619Y30251429D01*
X1197714Y30327620D01*
X1197714Y30365715D01*
X1159619Y30441905D01*
X1121523Y30480000D01*
X1045333Y30518096D01*
X892952Y30518096D01*
X816761Y30480000D01*
X778666Y30441905D01*
X740571Y30365715D01*
X740571Y30327620D01*
X778666Y30251429D01*
X816761Y30213334D01*
X892952Y30175239D01*
X1045333Y30175239D01*
X1121523Y30137143D01*
X1159619Y30099048D01*
X1197714Y30022858D01*
X1197714Y29870477D01*
X1159619Y29794286D01*
X1121523Y29756191D01*
X1045333Y29718096D01*
X892952Y29718096D01*
X816761Y29756191D01*
X778666Y29794286D01*
X740571Y29870477D01*
X740571Y30022858D01*
X778666Y30099048D01*
X816761Y30137143D01*
X892952Y30175239D01*
X10802285Y17018096D02*
X11259428Y17018096D01*
X11030857Y17018096D02*
X11030857Y17818096D01*
X11107047Y17703810D01*
X11183238Y17627620D01*
X11259428Y17589524D01*
X10535619Y17818096D02*
X10040380Y17818096D01*
X10307047Y17513334D01*
X10192761Y17513334D01*
X10116571Y17475239D01*
X10078476Y17437143D01*
X10040380Y17360953D01*
X10040380Y17170477D01*
X10078476Y17094286D01*
X10116571Y17056191D01*
X10192761Y17018096D01*
X10421333Y17018096D01*
X10497523Y17056191D01*
X10535619Y17094286D01*
X11259428Y22821905D02*
X11221333Y22860000D01*
X11145142Y22898096D01*
X10954666Y22898096D01*
X10878476Y22860000D01*
X10840380Y22821905D01*
X10802285Y22745715D01*
X10802285Y22669524D01*
X10840380Y22555239D01*
X11297523Y22098096D01*
X10802285Y22098096D01*
X10497523Y22821905D02*
X10459428Y22860000D01*
X10383238Y22898096D01*
X10192761Y22898096D01*
X10116571Y22860000D01*
X10078476Y22821905D01*
X10040380Y22745715D01*
X10040380Y22669524D01*
X10078476Y22555239D01*
X10535619Y22098096D01*
X10040380Y22098096D01*
X11297523Y43218096D02*
X10802285Y43218096D01*
X11068952Y42913334D01*
X10954666Y42913334D01*
X10878476Y42875239D01*
X10840380Y42837143D01*
X10802285Y42760953D01*
X10802285Y42570477D01*
X10840380Y42494286D01*
X10878476Y42456191D01*
X10954666Y42418096D01*
X11183238Y42418096D01*
X11259428Y42456191D01*
X11297523Y42494286D01*
X10078476Y43218096D02*
X10459428Y43218096D01*
X10497523Y42837143D01*
X10459428Y42875239D01*
X10383238Y42913334D01*
X10192761Y42913334D01*
X10116571Y42875239D01*
X10078476Y42837143D01*
X10040380Y42760953D01*
X10040380Y42570477D01*
X10078476Y42494286D01*
X10116571Y42456191D01*
X10192761Y42418096D01*
X10383238Y42418096D01*
X10459428Y42456191D01*
X10497523Y42494286D01*
X1921523Y6858096D02*
X1921523Y7658096D01*
X1921523Y7277143D02*
X1464380Y7277143D01*
X1464380Y6858096D02*
X1464380Y7658096D01*
X1083428Y6858096D02*
X1083428Y7658096D01*
X778666Y7658096D01*
X702476Y7620000D01*
X664380Y7581905D01*
X626285Y7505715D01*
X626285Y7391429D01*
X664380Y7315239D01*
X702476Y7277143D01*
X778666Y7239048D01*
X1083428Y7239048D01*
X10040380Y27178096D02*
X10497523Y27178096D01*
X10268952Y27178096D02*
X10268952Y27978096D01*
X10345142Y27863810D01*
X10421333Y27787620D01*
X10497523Y27749524D01*
X10764190Y10198096D02*
X11145142Y10198096D01*
X11183238Y9817143D01*
X11145142Y9855239D01*
X11068952Y9893334D01*
X10878476Y9893334D01*
X10802285Y9855239D01*
X10764190Y9817143D01*
X10726095Y9740953D01*
X10726095Y9550477D01*
X10764190Y9474286D01*
X10802285Y9436191D01*
X10878476Y9398096D01*
X11068952Y9398096D01*
X11145142Y9436191D01*
X11183238Y9474286D01*
X10497523Y10198096D02*
X10230857Y9398096D01*
X9964190Y10198096D01*
X1502476Y40640000D02*
X1578666Y40678096D01*
X1692952Y40678096D01*
X1807238Y40640000D01*
X1883428Y40563810D01*
X1921523Y40487620D01*
X1959619Y40335239D01*
X1959619Y40220953D01*
X1921523Y40068572D01*
X1883428Y39992381D01*
X1807238Y39916191D01*
X1692952Y39878096D01*
X1616761Y39878096D01*
X1502476Y39916191D01*
X1464380Y39954286D01*
X1464380Y40220953D01*
X1616761Y40220953D01*
X1959619Y35521905D02*
X1921523Y35560000D01*
X1845333Y35598096D01*
X1654857Y35598096D01*
X1578666Y35560000D01*
X1540571Y35521905D01*
X1502476Y35445715D01*
X1502476Y35369524D01*
X1540571Y35255239D01*
X1997714Y34798096D01*
X1502476Y34798096D01*
X1235809Y35598096D02*
X740571Y35598096D01*
X1007238Y35293334D01*
X892952Y35293334D01*
X816761Y35255239D01*
X778666Y35217143D01*
X740571Y35140953D01*
X740571Y34950477D01*
X778666Y34874286D01*
X816761Y34836191D01*
X892952Y34798096D01*
X1121523Y34798096D01*
X1197714Y34836191D01*
X1235809Y34874286D01*
X1502476Y43180000D02*
X1578666Y43218096D01*
X1692952Y43218096D01*
X1807238Y43180000D01*
X1883428Y43103810D01*
X1921523Y43027620D01*
X1959619Y42875239D01*
X1959619Y42760953D01*
X1921523Y42608572D01*
X1883428Y42532381D01*
X1807238Y42456191D01*
X1692952Y42418096D01*
X1616761Y42418096D01*
X1502476Y42456191D01*
X1464380Y42494286D01*
X1464380Y42760953D01*
X1616761Y42760953D01*
X10307047Y15278096D02*
X10230857Y15278096D01*
X10154666Y15240000D01*
X10116571Y15201905D01*
X10078476Y15125715D01*
X10040380Y14973334D01*
X10040380Y14782858D01*
X10078476Y14630477D01*
X10116571Y14554286D01*
X10154666Y14516191D01*
X10230857Y14478096D01*
X10307047Y14478096D01*
X10383238Y14516191D01*
X10421333Y14554286D01*
X10459428Y14630477D01*
X10497523Y14782858D01*
X10497523Y14973334D01*
X10459428Y15125715D01*
X10421333Y15201905D01*
X10383238Y15240000D01*
X10307047Y15278096D01*
X10802285Y24638096D02*
X11259428Y24638096D01*
X11030857Y24638096D02*
X11030857Y25438096D01*
X11107047Y25323810D01*
X11183238Y25247620D01*
X11259428Y25209524D01*
X10535619Y25438096D02*
X10002285Y25438096D01*
X10345142Y24638096D01*
X1502476Y14478096D02*
X1959619Y14478096D01*
X1731047Y14478096D02*
X1731047Y15278096D01*
X1807238Y15163810D01*
X1883428Y15087620D01*
X1959619Y15049524D01*
X778666Y15278096D02*
X1159619Y15278096D01*
X1197714Y14897143D01*
X1159619Y14935239D01*
X1083428Y14973334D01*
X892952Y14973334D01*
X816761Y14935239D01*
X778666Y14897143D01*
X740571Y14820953D01*
X740571Y14630477D01*
X778666Y14554286D01*
X816761Y14516191D01*
X892952Y14478096D01*
X1083428Y14478096D01*
X1159619Y14516191D01*
X1197714Y14554286D01*
X1502476Y17018096D02*
X1959619Y17018096D01*
X1731047Y17018096D02*
X1731047Y17818096D01*
X1807238Y17703810D01*
X1883428Y17627620D01*
X1959619Y17589524D01*
X1197714Y17741905D02*
X1159619Y17780000D01*
X1083428Y17818096D01*
X892952Y17818096D01*
X816761Y17780000D01*
X778666Y17741905D01*
X740571Y17665715D01*
X740571Y17589524D01*
X778666Y17475239D01*
X1235809Y17018096D01*
X740571Y17018096D01*
X1502476Y32258096D02*
X1959619Y32258096D01*
X1731047Y32258096D02*
X1731047Y33058096D01*
X1807238Y32943810D01*
X1883428Y32867620D01*
X1959619Y32829524D01*
X1121523Y32258096D02*
X969142Y32258096D01*
X892952Y32296191D01*
X854857Y32334286D01*
X778666Y32448572D01*
X740571Y32600953D01*
X740571Y32905715D01*
X778666Y32981905D01*
X816761Y33020000D01*
X892952Y33058096D01*
X1045333Y33058096D01*
X1121523Y33020000D01*
X1159619Y32981905D01*
X1197714Y32905715D01*
X1197714Y32715239D01*
X1159619Y32639048D01*
X1121523Y32600953D01*
X1045333Y32562858D01*
X892952Y32562858D01*
X816761Y32600953D01*
X778666Y32639048D01*
X740571Y32715239D01*
X11526095Y7277143D02*
X11411809Y7239048D01*
X11373714Y7200953D01*
X11335619Y7124762D01*
X11335619Y7010477D01*
X11373714Y6934286D01*
X11411809Y6896191D01*
X11488000Y6858096D01*
X11792761Y6858096D01*
X11792761Y7658096D01*
X11526095Y7658096D01*
X11449904Y7620000D01*
X11411809Y7581905D01*
X11373714Y7505715D01*
X11373714Y7429524D01*
X11411809Y7353334D01*
X11449904Y7315239D01*
X11526095Y7277143D01*
X11792761Y7277143D01*
X11030857Y7086667D02*
X10649904Y7086667D01*
X11107047Y6858096D02*
X10840380Y7658096D01*
X10573714Y6858096D01*
X10421333Y7658096D02*
X9964190Y7658096D01*
X10192761Y6858096D02*
X10192761Y7658096D01*
X11259428Y37757143D02*
X10992761Y37757143D01*
X10878476Y37338096D02*
X11259428Y37338096D01*
X11259428Y38138096D01*
X10878476Y38138096D01*
X10535619Y37338096D02*
X10535619Y38138096D01*
X10078476Y37338096D01*
X10078476Y38138096D01*
X3400000Y19150000D02*
X3400000Y18130000D01*
X3400000Y26770000D02*
X3400000Y25750000D01*
X3400000Y8990000D02*
X3400000Y7970000D01*
X8600000Y5880000D02*
X3400000Y5880000D01*
X3400000Y39470000D02*
X3400000Y38450000D01*
X3400000Y36930000D02*
X3400000Y35910000D01*
X3400000Y31850000D02*
X3400000Y30830000D01*
X3400000Y6450000D02*
X3400000Y5880000D01*
X8600000Y6450000D02*
X8600000Y5880000D01*
X8600000Y39470000D02*
X8600000Y38450000D01*
X8600000Y11530000D02*
X8600000Y10510000D01*
X8600000Y44100000D02*
X3400000Y44100000D01*
X3400000Y14070000D02*
X3400000Y13050000D01*
X3400000Y24230000D02*
X3400000Y23210000D01*
X3400000Y29310000D02*
X3400000Y28290000D01*
X8600000Y8990000D02*
X8600000Y7970000D01*
X8600000Y16610000D02*
X8600000Y15590000D01*
X10040000Y43530000D02*
X8600000Y43530000D01*
X3400000Y21690000D02*
X3400000Y20670000D01*
X8600000Y14070000D02*
X8600000Y13050000D01*
X3400000Y44100000D02*
X3400000Y43530000D01*
X8600000Y21690000D02*
X8600000Y20670000D01*
X3400000Y42010000D02*
X3400000Y40990000D01*
X8600000Y34390000D02*
X8600000Y33370000D01*
X8600000Y24230000D02*
X8600000Y23210000D01*
X8600000Y26770000D02*
X8600000Y25750000D01*
X3400000Y16610000D02*
X3400000Y15590000D01*
X3400000Y34390000D02*
X3400000Y33370000D01*
X8600000Y42010000D02*
X8600000Y40990000D01*
X8600000Y31850000D02*
X8600000Y30830000D01*
X8600000Y19150000D02*
X8600000Y18130000D01*
X3400000Y11530000D02*
X3400000Y10510000D01*
X8600000Y36930000D02*
X8600000Y35910000D01*
X8600000Y44100000D02*
X8600000Y43530000D01*
X8600000Y29310000D02*
X8600000Y28290000D01*
M02*
