G04 #@! TF.GenerationSoftware,KiCad,Pcbnew,(6.0.9)*
G04 #@! TF.CreationDate,2022-12-08T09:40:08+09:00*
G04 #@! TF.ProjectId,M5StackLocoNetModule,4d355374-6163-46b4-9c6f-636f4e65744d,rev?*
G04 #@! TF.SameCoordinates,PX6146580PY90f5600*
G04 #@! TF.FileFunction,Legend,Top*
G04 #@! TF.FilePolarity,Positive*
%FSLAX46Y46*%
G04 Gerber Fmt 4.6, Leading zero omitted, Abs format (unit mm)*
G04 Created by KiCad (PCBNEW (6.0.9)) date 2022-12-08 09:40:08*
%MOMM*%
%LPD*%
G01*
G04 APERTURE LIST*
%ADD10C,0.150000*%
%ADD11C,0.120000*%
G04 APERTURE END LIST*
D10*
X17533333Y37247620D02*
X17200000Y37723810D01*
X16961904Y37247620D02*
X16961904Y38247620D01*
X17342857Y38247620D01*
X17438095Y38200000D01*
X17485714Y38152381D01*
X17533333Y38057143D01*
X17533333Y37914286D01*
X17485714Y37819048D01*
X17438095Y37771429D01*
X17342857Y37723810D01*
X16961904Y37723810D01*
X18104761Y37819048D02*
X18009523Y37866667D01*
X17961904Y37914286D01*
X17914285Y38009524D01*
X17914285Y38057143D01*
X17961904Y38152381D01*
X18009523Y38200000D01*
X18104761Y38247620D01*
X18295238Y38247620D01*
X18390476Y38200000D01*
X18438095Y38152381D01*
X18485714Y38057143D01*
X18485714Y38009524D01*
X18438095Y37914286D01*
X18390476Y37866667D01*
X18295238Y37819048D01*
X18104761Y37819048D01*
X18009523Y37771429D01*
X17961904Y37723810D01*
X17914285Y37628572D01*
X17914285Y37438096D01*
X17961904Y37342858D01*
X18009523Y37295239D01*
X18104761Y37247620D01*
X18295238Y37247620D01*
X18390476Y37295239D01*
X18438095Y37342858D01*
X18485714Y37438096D01*
X18485714Y37628572D01*
X18438095Y37723810D01*
X18390476Y37771429D01*
X18295238Y37819048D01*
X17508333Y27247620D02*
X17175000Y27723810D01*
X16936904Y27247620D02*
X16936904Y28247620D01*
X17317857Y28247620D01*
X17413095Y28200000D01*
X17460714Y28152381D01*
X17508333Y28057143D01*
X17508333Y27914286D01*
X17460714Y27819048D01*
X17413095Y27771429D01*
X17317857Y27723810D01*
X16936904Y27723810D01*
X18365476Y28247620D02*
X18175000Y28247620D01*
X18079761Y28200000D01*
X18032142Y28152381D01*
X17936904Y28009524D01*
X17889285Y27819048D01*
X17889285Y27438096D01*
X17936904Y27342858D01*
X17984523Y27295239D01*
X18079761Y27247620D01*
X18270238Y27247620D01*
X18365476Y27295239D01*
X18413095Y27342858D01*
X18460714Y27438096D01*
X18460714Y27676191D01*
X18413095Y27771429D01*
X18365476Y27819048D01*
X18270238Y27866667D01*
X18079761Y27866667D01*
X17984523Y27819048D01*
X17936904Y27771429D01*
X17889285Y27676191D01*
X17608333Y8747620D02*
X17275000Y9223810D01*
X17036904Y8747620D02*
X17036904Y9747620D01*
X17417857Y9747620D01*
X17513095Y9700000D01*
X17560714Y9652381D01*
X17608333Y9557143D01*
X17608333Y9414286D01*
X17560714Y9319048D01*
X17513095Y9271429D01*
X17417857Y9223810D01*
X17036904Y9223810D01*
X18465476Y9414286D02*
X18465476Y8747620D01*
X18227380Y9795239D02*
X17989285Y9080953D01*
X18608333Y9080953D01*
X28954761Y47677381D02*
X28859523Y47725000D01*
X28764285Y47820239D01*
X28621428Y47963096D01*
X28526190Y48010715D01*
X28430952Y48010715D01*
X28478571Y47772620D02*
X28383333Y47820239D01*
X28288095Y47915477D01*
X28240476Y48105953D01*
X28240476Y48439286D01*
X28288095Y48629762D01*
X28383333Y48725000D01*
X28478571Y48772620D01*
X28669047Y48772620D01*
X28764285Y48725000D01*
X28859523Y48629762D01*
X28907142Y48439286D01*
X28907142Y48105953D01*
X28859523Y47915477D01*
X28764285Y47820239D01*
X28669047Y47772620D01*
X28478571Y47772620D01*
X29859523Y47772620D02*
X29288095Y47772620D01*
X29573809Y47772620D02*
X29573809Y48772620D01*
X29478571Y48629762D01*
X29383333Y48534524D01*
X29288095Y48486905D01*
X17558333Y42177620D02*
X17225000Y42653810D01*
X16986904Y42177620D02*
X16986904Y43177620D01*
X17367857Y43177620D01*
X17463095Y43130000D01*
X17510714Y43082381D01*
X17558333Y42987143D01*
X17558333Y42844286D01*
X17510714Y42749048D01*
X17463095Y42701429D01*
X17367857Y42653810D01*
X16986904Y42653810D01*
X18463095Y43177620D02*
X17986904Y43177620D01*
X17939285Y42701429D01*
X17986904Y42749048D01*
X18082142Y42796667D01*
X18320238Y42796667D01*
X18415476Y42749048D01*
X18463095Y42701429D01*
X18510714Y42606191D01*
X18510714Y42368096D01*
X18463095Y42272858D01*
X18415476Y42225239D01*
X18320238Y42177620D01*
X18082142Y42177620D01*
X17986904Y42225239D01*
X17939285Y42272858D01*
X27782142Y22333334D02*
X27829761Y22285715D01*
X27877380Y22142858D01*
X27877380Y22047620D01*
X27829761Y21904762D01*
X27734523Y21809524D01*
X27639285Y21761905D01*
X27448809Y21714286D01*
X27305952Y21714286D01*
X27115476Y21761905D01*
X27020238Y21809524D01*
X26925000Y21904762D01*
X26877380Y22047620D01*
X26877380Y22142858D01*
X26925000Y22285715D01*
X26972619Y22333334D01*
X27877380Y23285715D02*
X27877380Y22714286D01*
X27877380Y23000000D02*
X26877380Y23000000D01*
X27020238Y22904762D01*
X27115476Y22809524D01*
X27163095Y22714286D01*
X17013095Y26422620D02*
X17013095Y25613096D01*
X17060714Y25517858D01*
X17108333Y25470239D01*
X17203571Y25422620D01*
X17394047Y25422620D01*
X17489285Y25470239D01*
X17536904Y25517858D01*
X17584523Y25613096D01*
X17584523Y26422620D01*
X18584523Y25422620D02*
X18013095Y25422620D01*
X18298809Y25422620D02*
X18298809Y26422620D01*
X18203571Y26279762D01*
X18108333Y26184524D01*
X18013095Y26136905D01*
X17558333Y32322620D02*
X17225000Y32798810D01*
X16986904Y32322620D02*
X16986904Y33322620D01*
X17367857Y33322620D01*
X17463095Y33275000D01*
X17510714Y33227381D01*
X17558333Y33132143D01*
X17558333Y32989286D01*
X17510714Y32894048D01*
X17463095Y32846429D01*
X17367857Y32798810D01*
X16986904Y32798810D01*
X17891666Y33322620D02*
X18558333Y33322620D01*
X18129761Y32322620D01*
X41177380Y41291667D02*
X41891666Y41291667D01*
X42034523Y41244048D01*
X42129761Y41148810D01*
X42177380Y41005953D01*
X42177380Y40910715D01*
X41272619Y41720239D02*
X41225000Y41767858D01*
X41177380Y41863096D01*
X41177380Y42101191D01*
X41225000Y42196429D01*
X41272619Y42244048D01*
X41367857Y42291667D01*
X41463095Y42291667D01*
X41605952Y42244048D01*
X42177380Y41672620D01*
X42177380Y42291667D01*
X41252380Y7966667D02*
X41966666Y7966667D01*
X42109523Y7919048D01*
X42204761Y7823810D01*
X42252380Y7680953D01*
X42252380Y7585715D01*
X41252380Y8347620D02*
X41252380Y8966667D01*
X41633333Y8633334D01*
X41633333Y8776191D01*
X41680952Y8871429D01*
X41728571Y8919048D01*
X41823809Y8966667D01*
X42061904Y8966667D01*
X42157142Y8919048D01*
X42204761Y8871429D01*
X42252380Y8776191D01*
X42252380Y8490477D01*
X42204761Y8395239D01*
X42157142Y8347620D01*
X28833333Y32247620D02*
X28500000Y32723810D01*
X28261904Y32247620D02*
X28261904Y33247620D01*
X28642857Y33247620D01*
X28738095Y33200000D01*
X28785714Y33152381D01*
X28833333Y33057143D01*
X28833333Y32914286D01*
X28785714Y32819048D01*
X28738095Y32771429D01*
X28642857Y32723810D01*
X28261904Y32723810D01*
X29214285Y33152381D02*
X29261904Y33200000D01*
X29357142Y33247620D01*
X29595238Y33247620D01*
X29690476Y33200000D01*
X29738095Y33152381D01*
X29785714Y33057143D01*
X29785714Y32961905D01*
X29738095Y32819048D01*
X29166666Y32247620D01*
X29785714Y32247620D01*
X28958333Y27222620D02*
X28625000Y27698810D01*
X28386904Y27222620D02*
X28386904Y28222620D01*
X28767857Y28222620D01*
X28863095Y28175000D01*
X28910714Y28127381D01*
X28958333Y28032143D01*
X28958333Y27889286D01*
X28910714Y27794048D01*
X28863095Y27746429D01*
X28767857Y27698810D01*
X28386904Y27698810D01*
X29910714Y27222620D02*
X29339285Y27222620D01*
X29625000Y27222620D02*
X29625000Y28222620D01*
X29529761Y28079762D01*
X29434523Y27984524D01*
X29339285Y27936905D01*
X31352380Y38911905D02*
X30352380Y38911905D01*
X30352380Y39150000D01*
X30400000Y39292858D01*
X30495238Y39388096D01*
X30590476Y39435715D01*
X30780952Y39483334D01*
X30923809Y39483334D01*
X31114285Y39435715D01*
X31209523Y39388096D01*
X31304761Y39292858D01*
X31352380Y39150000D01*
X31352380Y38911905D01*
X31352380Y40435715D02*
X31352380Y39864286D01*
X31352380Y40150000D02*
X30352380Y40150000D01*
X30495238Y40054762D01*
X30590476Y39959524D01*
X30638095Y39864286D01*
X5766666Y45447620D02*
X5766666Y44733334D01*
X5719047Y44590477D01*
X5623809Y44495239D01*
X5480952Y44447620D01*
X5385714Y44447620D01*
X6766666Y44447620D02*
X6195238Y44447620D01*
X6480952Y44447620D02*
X6480952Y45447620D01*
X6385714Y45304762D01*
X6290476Y45209524D01*
X6195238Y45161905D01*
D11*
X10345142Y7277143D02*
X10459428Y7239048D01*
X10497523Y7200953D01*
X10535619Y7124762D01*
X10535619Y7010477D01*
X10497523Y6934286D01*
X10459428Y6896191D01*
X10383238Y6858096D01*
X10078476Y6858096D01*
X10078476Y7658096D01*
X10345142Y7658096D01*
X10421333Y7620000D01*
X10459428Y7581905D01*
X10497523Y7505715D01*
X10497523Y7429524D01*
X10459428Y7353334D01*
X10421333Y7315239D01*
X10345142Y7277143D01*
X10078476Y7277143D01*
X10840380Y7086667D02*
X11221333Y7086667D01*
X10764190Y6858096D02*
X11030857Y7658096D01*
X11297523Y6858096D01*
X11449904Y7658096D02*
X11907047Y7658096D01*
X11678476Y6858096D02*
X11678476Y7658096D01*
X664380Y6858096D02*
X664380Y7658096D01*
X664380Y7277143D02*
X1121523Y7277143D01*
X1121523Y6858096D02*
X1121523Y7658096D01*
X1502476Y6858096D02*
X1502476Y7658096D01*
X1807238Y7658096D01*
X1883428Y7620000D01*
X1921523Y7581905D01*
X1959619Y7505715D01*
X1959619Y7391429D01*
X1921523Y7315239D01*
X1883428Y7277143D01*
X1807238Y7239048D01*
X1502476Y7239048D01*
X1197714Y32258096D02*
X740571Y32258096D01*
X969142Y32258096D02*
X969142Y33058096D01*
X892952Y32943810D01*
X816761Y32867620D01*
X740571Y32829524D01*
X1578666Y32258096D02*
X1731047Y32258096D01*
X1807238Y32296191D01*
X1845333Y32334286D01*
X1921523Y32448572D01*
X1959619Y32600953D01*
X1959619Y32905715D01*
X1921523Y32981905D01*
X1883428Y33020000D01*
X1807238Y33058096D01*
X1654857Y33058096D01*
X1578666Y33020000D01*
X1540571Y32981905D01*
X1502476Y32905715D01*
X1502476Y32715239D01*
X1540571Y32639048D01*
X1578666Y32600953D01*
X1654857Y32562858D01*
X1807238Y32562858D01*
X1883428Y32600953D01*
X1921523Y32639048D01*
X1959619Y32715239D01*
X10002285Y12738096D02*
X10497523Y12738096D01*
X10230857Y12433334D01*
X10345142Y12433334D01*
X10421333Y12395239D01*
X10459428Y12357143D01*
X10497523Y12280953D01*
X10497523Y12090477D01*
X10459428Y12014286D01*
X10421333Y11976191D01*
X10345142Y11938096D01*
X10116571Y11938096D01*
X10040380Y11976191D01*
X10002285Y12014286D01*
X11183238Y12471429D02*
X11183238Y11938096D01*
X10992761Y12776191D02*
X10802285Y12204762D01*
X11297523Y12204762D01*
X1197714Y17018096D02*
X740571Y17018096D01*
X969142Y17018096D02*
X969142Y17818096D01*
X892952Y17703810D01*
X816761Y17627620D01*
X740571Y17589524D01*
X1502476Y17741905D02*
X1540571Y17780000D01*
X1616761Y17818096D01*
X1807238Y17818096D01*
X1883428Y17780000D01*
X1921523Y17741905D01*
X1959619Y17665715D01*
X1959619Y17589524D01*
X1921523Y17475239D01*
X1464380Y17018096D01*
X1959619Y17018096D01*
X10002285Y43218096D02*
X10497523Y43218096D01*
X10230857Y42913334D01*
X10345142Y42913334D01*
X10421333Y42875239D01*
X10459428Y42837143D01*
X10497523Y42760953D01*
X10497523Y42570477D01*
X10459428Y42494286D01*
X10421333Y42456191D01*
X10345142Y42418096D01*
X10116571Y42418096D01*
X10040380Y42456191D01*
X10002285Y42494286D01*
X11221333Y43218096D02*
X10840380Y43218096D01*
X10802285Y42837143D01*
X10840380Y42875239D01*
X10916571Y42913334D01*
X11107047Y42913334D01*
X11183238Y42875239D01*
X11221333Y42837143D01*
X11259428Y42760953D01*
X11259428Y42570477D01*
X11221333Y42494286D01*
X11183238Y42456191D01*
X11107047Y42418096D01*
X10916571Y42418096D01*
X10840380Y42456191D01*
X10802285Y42494286D01*
X10002285Y30518096D02*
X10497523Y30518096D01*
X10230857Y30213334D01*
X10345142Y30213334D01*
X10421333Y30175239D01*
X10459428Y30137143D01*
X10497523Y30060953D01*
X10497523Y29870477D01*
X10459428Y29794286D01*
X10421333Y29756191D01*
X10345142Y29718096D01*
X10116571Y29718096D01*
X10040380Y29756191D01*
X10002285Y29794286D01*
X10726095Y30518096D02*
X10992761Y29718096D01*
X11259428Y30518096D01*
X11449904Y30518096D02*
X11945142Y30518096D01*
X11678476Y30213334D01*
X11792761Y30213334D01*
X11868952Y30175239D01*
X11907047Y30137143D01*
X11945142Y30060953D01*
X11945142Y29870477D01*
X11907047Y29794286D01*
X11868952Y29756191D01*
X11792761Y29718096D01*
X11564190Y29718096D01*
X11488000Y29756191D01*
X11449904Y29794286D01*
X1464380Y27978096D02*
X1959619Y27978096D01*
X1692952Y27673334D01*
X1807238Y27673334D01*
X1883428Y27635239D01*
X1921523Y27597143D01*
X1959619Y27520953D01*
X1959619Y27330477D01*
X1921523Y27254286D01*
X1883428Y27216191D01*
X1807238Y27178096D01*
X1578666Y27178096D01*
X1502476Y27216191D01*
X1464380Y27254286D01*
X1921523Y43180000D02*
X1845333Y43218096D01*
X1731047Y43218096D01*
X1616761Y43180000D01*
X1540571Y43103810D01*
X1502476Y43027620D01*
X1464380Y42875239D01*
X1464380Y42760953D01*
X1502476Y42608572D01*
X1540571Y42532381D01*
X1616761Y42456191D01*
X1731047Y42418096D01*
X1807238Y42418096D01*
X1921523Y42456191D01*
X1959619Y42494286D01*
X1959619Y42760953D01*
X1807238Y42760953D01*
X1197714Y29718096D02*
X740571Y29718096D01*
X969142Y29718096D02*
X969142Y30518096D01*
X892952Y30403810D01*
X816761Y30327620D01*
X740571Y30289524D01*
X1654857Y30175239D02*
X1578666Y30213334D01*
X1540571Y30251429D01*
X1502476Y30327620D01*
X1502476Y30365715D01*
X1540571Y30441905D01*
X1578666Y30480000D01*
X1654857Y30518096D01*
X1807238Y30518096D01*
X1883428Y30480000D01*
X1921523Y30441905D01*
X1959619Y30365715D01*
X1959619Y30327620D01*
X1921523Y30251429D01*
X1883428Y30213334D01*
X1807238Y30175239D01*
X1654857Y30175239D01*
X1578666Y30137143D01*
X1540571Y30099048D01*
X1502476Y30022858D01*
X1502476Y29870477D01*
X1540571Y29794286D01*
X1578666Y29756191D01*
X1654857Y29718096D01*
X1807238Y29718096D01*
X1883428Y29756191D01*
X1921523Y29794286D01*
X1959619Y29870477D01*
X1959619Y30022858D01*
X1921523Y30099048D01*
X1883428Y30137143D01*
X1807238Y30175239D01*
X740571Y35521905D02*
X778666Y35560000D01*
X854857Y35598096D01*
X1045333Y35598096D01*
X1121523Y35560000D01*
X1159619Y35521905D01*
X1197714Y35445715D01*
X1197714Y35369524D01*
X1159619Y35255239D01*
X702476Y34798096D01*
X1197714Y34798096D01*
X1464380Y35598096D02*
X1959619Y35598096D01*
X1692952Y35293334D01*
X1807238Y35293334D01*
X1883428Y35255239D01*
X1921523Y35217143D01*
X1959619Y35140953D01*
X1959619Y34950477D01*
X1921523Y34874286D01*
X1883428Y34836191D01*
X1807238Y34798096D01*
X1578666Y34798096D01*
X1502476Y34836191D01*
X1464380Y34874286D01*
X1197714Y24638096D02*
X740571Y24638096D01*
X969142Y24638096D02*
X969142Y25438096D01*
X892952Y25323810D01*
X816761Y25247620D01*
X740571Y25209524D01*
X1883428Y25438096D02*
X1731047Y25438096D01*
X1654857Y25400000D01*
X1616761Y25361905D01*
X1540571Y25247620D01*
X1502476Y25095239D01*
X1502476Y24790477D01*
X1540571Y24714286D01*
X1578666Y24676191D01*
X1654857Y24638096D01*
X1807238Y24638096D01*
X1883428Y24676191D01*
X1921523Y24714286D01*
X1959619Y24790477D01*
X1959619Y24980953D01*
X1921523Y25057143D01*
X1883428Y25095239D01*
X1807238Y25133334D01*
X1654857Y25133334D01*
X1578666Y25095239D01*
X1540571Y25057143D01*
X1502476Y24980953D01*
X10497523Y17018096D02*
X10040380Y17018096D01*
X10268952Y17018096D02*
X10268952Y17818096D01*
X10192761Y17703810D01*
X10116571Y17627620D01*
X10040380Y17589524D01*
X10764190Y17818096D02*
X11259428Y17818096D01*
X10992761Y17513334D01*
X11107047Y17513334D01*
X11183238Y17475239D01*
X11221333Y17437143D01*
X11259428Y17360953D01*
X11259428Y17170477D01*
X11221333Y17094286D01*
X11183238Y17056191D01*
X11107047Y17018096D01*
X10878476Y17018096D01*
X10802285Y17056191D01*
X10764190Y17094286D01*
X1502476Y20281905D02*
X1540571Y20320000D01*
X1616761Y20358096D01*
X1807238Y20358096D01*
X1883428Y20320000D01*
X1921523Y20281905D01*
X1959619Y20205715D01*
X1959619Y20129524D01*
X1921523Y20015239D01*
X1464380Y19558096D01*
X1959619Y19558096D01*
X10040380Y22821905D02*
X10078476Y22860000D01*
X10154666Y22898096D01*
X10345142Y22898096D01*
X10421333Y22860000D01*
X10459428Y22821905D01*
X10497523Y22745715D01*
X10497523Y22669524D01*
X10459428Y22555239D01*
X10002285Y22098096D01*
X10497523Y22098096D01*
X10802285Y22821905D02*
X10840380Y22860000D01*
X10916571Y22898096D01*
X11107047Y22898096D01*
X11183238Y22860000D01*
X11221333Y22821905D01*
X11259428Y22745715D01*
X11259428Y22669524D01*
X11221333Y22555239D01*
X10764190Y22098096D01*
X11259428Y22098096D01*
X740571Y22821905D02*
X778666Y22860000D01*
X854857Y22898096D01*
X1045333Y22898096D01*
X1121523Y22860000D01*
X1159619Y22821905D01*
X1197714Y22745715D01*
X1197714Y22669524D01*
X1159619Y22555239D01*
X702476Y22098096D01*
X1197714Y22098096D01*
X1959619Y22098096D02*
X1502476Y22098096D01*
X1731047Y22098096D02*
X1731047Y22898096D01*
X1654857Y22783810D01*
X1578666Y22707620D01*
X1502476Y22669524D01*
X10230857Y15278096D02*
X10307047Y15278096D01*
X10383238Y15240000D01*
X10421333Y15201905D01*
X10459428Y15125715D01*
X10497523Y14973334D01*
X10497523Y14782858D01*
X10459428Y14630477D01*
X10421333Y14554286D01*
X10383238Y14516191D01*
X10307047Y14478096D01*
X10230857Y14478096D01*
X10154666Y14516191D01*
X10116571Y14554286D01*
X10078476Y14630477D01*
X10040380Y14782858D01*
X10040380Y14973334D01*
X10078476Y15125715D01*
X10116571Y15201905D01*
X10154666Y15240000D01*
X10230857Y15278096D01*
X1921523Y40640000D02*
X1845333Y40678096D01*
X1731047Y40678096D01*
X1616761Y40640000D01*
X1540571Y40563810D01*
X1502476Y40487620D01*
X1464380Y40335239D01*
X1464380Y40220953D01*
X1502476Y40068572D01*
X1540571Y39992381D01*
X1616761Y39916191D01*
X1731047Y39878096D01*
X1807238Y39878096D01*
X1921523Y39916191D01*
X1959619Y39954286D01*
X1959619Y40220953D01*
X1807238Y40220953D01*
X1197714Y14478096D02*
X740571Y14478096D01*
X969142Y14478096D02*
X969142Y15278096D01*
X892952Y15163810D01*
X816761Y15087620D01*
X740571Y15049524D01*
X1921523Y15278096D02*
X1540571Y15278096D01*
X1502476Y14897143D01*
X1540571Y14935239D01*
X1616761Y14973334D01*
X1807238Y14973334D01*
X1883428Y14935239D01*
X1921523Y14897143D01*
X1959619Y14820953D01*
X1959619Y14630477D01*
X1921523Y14554286D01*
X1883428Y14516191D01*
X1807238Y14478096D01*
X1616761Y14478096D01*
X1540571Y14516191D01*
X1502476Y14554286D01*
X10497523Y27178096D02*
X10040380Y27178096D01*
X10268952Y27178096D02*
X10268952Y27978096D01*
X10192761Y27863810D01*
X10116571Y27787620D01*
X10040380Y27749524D01*
X664380Y9398096D02*
X664380Y10198096D01*
X664380Y9817143D02*
X1121523Y9817143D01*
X1121523Y9398096D02*
X1121523Y10198096D01*
X1502476Y9398096D02*
X1502476Y10198096D01*
X1807238Y10198096D01*
X1883428Y10160000D01*
X1921523Y10121905D01*
X1959619Y10045715D01*
X1959619Y9931429D01*
X1921523Y9855239D01*
X1883428Y9817143D01*
X1807238Y9779048D01*
X1502476Y9779048D01*
X10459428Y10198096D02*
X10078476Y10198096D01*
X10040380Y9817143D01*
X10078476Y9855239D01*
X10154666Y9893334D01*
X10345142Y9893334D01*
X10421333Y9855239D01*
X10459428Y9817143D01*
X10497523Y9740953D01*
X10497523Y9550477D01*
X10459428Y9474286D01*
X10421333Y9436191D01*
X10345142Y9398096D01*
X10154666Y9398096D01*
X10078476Y9436191D01*
X10040380Y9474286D01*
X10726095Y10198096D02*
X10992761Y9398096D01*
X11259428Y10198096D01*
X10040380Y32981905D02*
X10078476Y33020000D01*
X10154666Y33058096D01*
X10345142Y33058096D01*
X10421333Y33020000D01*
X10459428Y32981905D01*
X10497523Y32905715D01*
X10497523Y32829524D01*
X10459428Y32715239D01*
X10002285Y32258096D01*
X10497523Y32258096D01*
X11183238Y33058096D02*
X11030857Y33058096D01*
X10954666Y33020000D01*
X10916571Y32981905D01*
X10840380Y32867620D01*
X10802285Y32715239D01*
X10802285Y32410477D01*
X10840380Y32334286D01*
X10878476Y32296191D01*
X10954666Y32258096D01*
X11107047Y32258096D01*
X11183238Y32296191D01*
X11221333Y32334286D01*
X11259428Y32410477D01*
X11259428Y32600953D01*
X11221333Y32677143D01*
X11183238Y32715239D01*
X11107047Y32753334D01*
X10954666Y32753334D01*
X10878476Y32715239D01*
X10840380Y32677143D01*
X10802285Y32600953D01*
X10078476Y37757143D02*
X10345142Y37757143D01*
X10459428Y37338096D02*
X10078476Y37338096D01*
X10078476Y38138096D01*
X10459428Y38138096D01*
X10802285Y37338096D02*
X10802285Y38138096D01*
X11259428Y37338096D01*
X11259428Y38138096D01*
X10040380Y35521905D02*
X10078476Y35560000D01*
X10154666Y35598096D01*
X10345142Y35598096D01*
X10421333Y35560000D01*
X10459428Y35521905D01*
X10497523Y35445715D01*
X10497523Y35369524D01*
X10459428Y35255239D01*
X10002285Y34798096D01*
X10497523Y34798096D01*
X11221333Y35598096D02*
X10840380Y35598096D01*
X10802285Y35217143D01*
X10840380Y35255239D01*
X10916571Y35293334D01*
X11107047Y35293334D01*
X11183238Y35255239D01*
X11221333Y35217143D01*
X11259428Y35140953D01*
X11259428Y34950477D01*
X11221333Y34874286D01*
X11183238Y34836191D01*
X11107047Y34798096D01*
X10916571Y34798096D01*
X10840380Y34836191D01*
X10802285Y34874286D01*
X10459428Y20358096D02*
X10078476Y20358096D01*
X10040380Y19977143D01*
X10078476Y20015239D01*
X10154666Y20053334D01*
X10345142Y20053334D01*
X10421333Y20015239D01*
X10459428Y19977143D01*
X10497523Y19900953D01*
X10497523Y19710477D01*
X10459428Y19634286D01*
X10421333Y19596191D01*
X10345142Y19558096D01*
X10154666Y19558096D01*
X10078476Y19596191D01*
X10040380Y19634286D01*
X664380Y11938096D02*
X664380Y12738096D01*
X664380Y12357143D02*
X1121523Y12357143D01*
X1121523Y11938096D02*
X1121523Y12738096D01*
X1502476Y11938096D02*
X1502476Y12738096D01*
X1807238Y12738096D01*
X1883428Y12700000D01*
X1921523Y12661905D01*
X1959619Y12585715D01*
X1959619Y12471429D01*
X1921523Y12395239D01*
X1883428Y12357143D01*
X1807238Y12319048D01*
X1502476Y12319048D01*
X10002285Y40678096D02*
X10497523Y40678096D01*
X10230857Y40373334D01*
X10345142Y40373334D01*
X10421333Y40335239D01*
X10459428Y40297143D01*
X10497523Y40220953D01*
X10497523Y40030477D01*
X10459428Y39954286D01*
X10421333Y39916191D01*
X10345142Y39878096D01*
X10116571Y39878096D01*
X10040380Y39916191D01*
X10002285Y39954286D01*
X11183238Y40678096D02*
X11030857Y40678096D01*
X10954666Y40640000D01*
X10916571Y40601905D01*
X10840380Y40487620D01*
X10802285Y40335239D01*
X10802285Y40030477D01*
X10840380Y39954286D01*
X10878476Y39916191D01*
X10954666Y39878096D01*
X11107047Y39878096D01*
X11183238Y39916191D01*
X11221333Y39954286D01*
X11259428Y40030477D01*
X11259428Y40220953D01*
X11221333Y40297143D01*
X11183238Y40335239D01*
X11107047Y40373334D01*
X10954666Y40373334D01*
X10878476Y40335239D01*
X10840380Y40297143D01*
X10802285Y40220953D01*
X10497523Y24638096D02*
X10040380Y24638096D01*
X10268952Y24638096D02*
X10268952Y25438096D01*
X10192761Y25323810D01*
X10116571Y25247620D01*
X10040380Y25209524D01*
X10764190Y25438096D02*
X11297523Y25438096D01*
X10954666Y24638096D01*
X1921523Y38100000D02*
X1845333Y38138096D01*
X1731047Y38138096D01*
X1616761Y38100000D01*
X1540571Y38023810D01*
X1502476Y37947620D01*
X1464380Y37795239D01*
X1464380Y37680953D01*
X1502476Y37528572D01*
X1540571Y37452381D01*
X1616761Y37376191D01*
X1731047Y37338096D01*
X1807238Y37338096D01*
X1921523Y37376191D01*
X1959619Y37414286D01*
X1959619Y37680953D01*
X1807238Y37680953D01*
D10*
X17533333Y3747620D02*
X17200000Y4223810D01*
X16961904Y3747620D02*
X16961904Y4747620D01*
X17342857Y4747620D01*
X17438095Y4700000D01*
X17485714Y4652381D01*
X17533333Y4557143D01*
X17533333Y4414286D01*
X17485714Y4319048D01*
X17438095Y4271429D01*
X17342857Y4223810D01*
X16961904Y4223810D01*
X17866666Y4747620D02*
X18485714Y4747620D01*
X18152380Y4366667D01*
X18295238Y4366667D01*
X18390476Y4319048D01*
X18438095Y4271429D01*
X18485714Y4176191D01*
X18485714Y3938096D01*
X18438095Y3842858D01*
X18390476Y3795239D01*
X18295238Y3747620D01*
X18009523Y3747620D01*
X17914285Y3795239D01*
X17866666Y3842858D01*
D11*
X20995000Y38960000D02*
X20995000Y38630000D01*
X14455000Y38630000D02*
X14455000Y38960000D01*
X20995000Y38630000D02*
X14455000Y38630000D01*
X14455000Y41370000D02*
X14455000Y41040000D01*
X20995000Y41370000D02*
X14455000Y41370000D01*
X20995000Y41040000D02*
X20995000Y41370000D01*
X20995000Y28630000D02*
X14455000Y28630000D01*
X14455000Y28630000D02*
X14455000Y28960000D01*
X14455000Y31370000D02*
X14455000Y31040000D01*
X20995000Y31040000D02*
X20995000Y31370000D01*
X20995000Y28960000D02*
X20995000Y28630000D01*
X20995000Y31370000D02*
X14455000Y31370000D01*
X20995000Y12870000D02*
X20995000Y12540000D01*
X14455000Y12540000D02*
X14455000Y12870000D01*
X14455000Y10460000D02*
X14455000Y10130000D01*
X20995000Y10130000D02*
X20995000Y10460000D01*
X14455000Y10130000D02*
X20995000Y10130000D01*
X14455000Y12870000D02*
X20995000Y12870000D01*
X27250000Y42815000D02*
X30850000Y42815000D01*
X29050000Y47265001D02*
G75*
G03*
X27211522Y42826522I0J-2600001D01*
G01*
X30888478Y42826522D02*
G75*
G03*
X29050000Y47265000I-1838478J1838478D01*
G01*
X20995000Y46040000D02*
X20995000Y46370000D01*
X20995000Y43960000D02*
X20995000Y43630000D01*
X20995000Y46370000D02*
X14455000Y46370000D01*
X14455000Y43630000D02*
X14455000Y43960000D01*
X14455000Y46370000D02*
X14455000Y46040000D01*
X20995000Y43630000D02*
X14455000Y43630000D01*
X24455000Y23129000D02*
X24455000Y21871000D01*
X26295000Y23129000D02*
X26295000Y21871000D01*
X20385000Y14800000D02*
X20385000Y25080000D01*
X20385000Y25080000D02*
X18735000Y25080000D01*
X15085000Y14800000D02*
X20385000Y14800000D01*
X15085000Y25080000D02*
X15085000Y14800000D01*
X16735000Y25080000D02*
X15085000Y25080000D01*
X16735000Y25080000D02*
G75*
G03*
X18735000Y25080000I1000000J0D01*
G01*
X21045000Y36370000D02*
X14505000Y36370000D01*
X21045000Y33960000D02*
X21045000Y33630000D01*
X14505000Y33630000D02*
X14505000Y33960000D01*
X21045000Y33630000D02*
X14505000Y33630000D01*
X21045000Y36040000D02*
X21045000Y36370000D01*
X14505000Y36370000D02*
X14505000Y36040000D01*
X34400000Y26900000D02*
X49400000Y26900000D01*
X49400000Y26900000D02*
X49400000Y39100000D01*
X49400000Y39100000D02*
X34400000Y39100000D01*
X34400000Y39100000D02*
X34400000Y26900000D01*
X34400000Y11000000D02*
X49400000Y11000000D01*
X49400000Y11000000D02*
X49400000Y23200000D01*
X49400000Y23200000D02*
X34400000Y23200000D01*
X34400000Y23200000D02*
X34400000Y11000000D01*
X32320000Y36370000D02*
X32320000Y36040000D01*
X32320000Y33630000D02*
X32320000Y33960000D01*
X25780000Y33960000D02*
X25780000Y33630000D01*
X25780000Y36040000D02*
X25780000Y36370000D01*
X25780000Y33630000D02*
X32320000Y33630000D01*
X25780000Y36370000D02*
X32320000Y36370000D01*
X32370000Y28630000D02*
X25830000Y28630000D01*
X25830000Y31370000D02*
X25830000Y31040000D01*
X25830000Y28630000D02*
X25830000Y28960000D01*
X32370000Y31040000D02*
X32370000Y31370000D01*
X32370000Y28960000D02*
X32370000Y28630000D01*
X32370000Y31370000D02*
X25830000Y31370000D01*
X29860000Y38550000D02*
X29860000Y41235000D01*
X29860000Y41235000D02*
X27940000Y41235000D01*
X27940000Y41235000D02*
X27940000Y38550000D01*
X8600000Y39480000D02*
X8600000Y38460000D01*
X3400000Y34400000D02*
X3400000Y33380000D01*
X8600000Y11540000D02*
X8600000Y10520000D01*
X3400000Y21700000D02*
X3400000Y20680000D01*
X8600000Y26780000D02*
X8600000Y25760000D01*
X8600000Y29320000D02*
X8600000Y28300000D01*
X3400000Y11540000D02*
X3400000Y10520000D01*
X3400000Y42020000D02*
X3400000Y41000000D01*
X8600000Y14080000D02*
X8600000Y13060000D01*
X8600000Y36940000D02*
X8600000Y35920000D01*
X8600000Y16620000D02*
X8600000Y15600000D01*
X3400000Y31860000D02*
X3400000Y30840000D01*
X8600000Y44110000D02*
X8600000Y43540000D01*
X3400000Y6460000D02*
X3400000Y5890000D01*
X3400000Y19160000D02*
X3400000Y18140000D01*
X3400000Y5890000D02*
X8600000Y5890000D01*
X8600000Y9000000D02*
X8600000Y7980000D01*
X8600000Y34400000D02*
X8600000Y33380000D01*
X1960000Y43540000D02*
X3400000Y43540000D01*
X3400000Y36940000D02*
X3400000Y35920000D01*
X8600000Y6460000D02*
X8600000Y5890000D01*
X8600000Y24240000D02*
X8600000Y23220000D01*
X3400000Y9000000D02*
X3400000Y7980000D01*
X3400000Y44110000D02*
X3400000Y43540000D01*
X8600000Y21700000D02*
X8600000Y20680000D01*
X3400000Y24240000D02*
X3400000Y23220000D01*
X3400000Y26780000D02*
X3400000Y25760000D01*
X3400000Y39480000D02*
X3400000Y38460000D01*
X3400000Y16620000D02*
X3400000Y15600000D01*
X3400000Y29320000D02*
X3400000Y28300000D01*
X8600000Y19160000D02*
X8600000Y18140000D01*
X8600000Y42020000D02*
X8600000Y41000000D01*
X3400000Y14080000D02*
X3400000Y13060000D01*
X8600000Y31860000D02*
X8600000Y30840000D01*
X3400000Y44110000D02*
X8600000Y44110000D01*
X21070000Y7870000D02*
X14530000Y7870000D01*
X14530000Y7870000D02*
X14530000Y7540000D01*
X21070000Y5130000D02*
X14530000Y5130000D01*
X21070000Y7540000D02*
X21070000Y7870000D01*
X14530000Y5130000D02*
X14530000Y5460000D01*
X21070000Y5460000D02*
X21070000Y5130000D01*
M02*
