G04 #@! TF.GenerationSoftware,KiCad,Pcbnew,(6.0.9)*
G04 #@! TF.CreationDate,2022-12-08T09:40:08+09:00*
G04 #@! TF.ProjectId,M5StackLocoNetModule,4d355374-6163-46b4-9c6f-636f4e65744d,rev?*
G04 #@! TF.SameCoordinates,PX6146580PY90f5600*
G04 #@! TF.FileFunction,Soldermask,Top*
G04 #@! TF.FilePolarity,Negative*
%FSLAX46Y46*%
G04 Gerber Fmt 4.6, Leading zero omitted, Abs format (unit mm)*
G04 Created by KiCad (PCBNEW (6.0.9)) date 2022-12-08 09:40:08*
%MOMM*%
%LPD*%
G01*
G04 APERTURE LIST*
G04 Aperture macros list*
%AMRoundRect*
0 Rectangle with rounded corners*
0 $1 Rounding radius*
0 $2 $3 $4 $5 $6 $7 $8 $9 X,Y pos of 4 corners*
0 Add a 4 corners polygon primitive as box body*
4,1,4,$2,$3,$4,$5,$6,$7,$8,$9,$2,$3,0*
0 Add four circle primitives for the rounded corners*
1,1,$1+$1,$2,$3*
1,1,$1+$1,$4,$5*
1,1,$1+$1,$6,$7*
1,1,$1+$1,$8,$9*
0 Add four rect primitives between the rounded corners*
20,1,$1+$1,$2,$3,$4,$5,0*
20,1,$1+$1,$4,$5,$6,$7,0*
20,1,$1+$1,$6,$7,$8,$9,0*
20,1,$1+$1,$8,$9,$2,$3,0*%
%AMFreePoly0*
4,1,5,0.500000,-0.500000,-2.500000,-0.500000,-2.500000,0.500000,0.500000,0.500000,0.500000,-0.500000,0.500000,-0.500000,$1*%
G04 Aperture macros list end*
%ADD10C,2.200000*%
%ADD11C,3.200000*%
%ADD12C,1.600000*%
%ADD13O,1.600000X1.600000*%
%ADD14R,1.300000X1.300000*%
%ADD15C,1.300000*%
%ADD16R,1.600000X1.600000*%
%ADD17C,1.524000*%
%ADD18C,1.400000*%
%ADD19RoundRect,0.243750X-0.456250X0.243750X-0.456250X-0.243750X0.456250X-0.243750X0.456250X0.243750X0*%
%ADD20C,1.000000*%
%ADD21C,1.700000*%
%ADD22FreePoly0,180.000000*%
%ADD23FreePoly0,0.000000*%
%ADD24C,0.800000*%
G04 APERTURE END LIST*
D10*
X7000000Y47000000D03*
D11*
X47000000Y3000000D03*
D12*
X21535000Y40000000D03*
D13*
X13915000Y40000000D03*
D12*
X21535000Y30000000D03*
D13*
X13915000Y30000000D03*
D10*
X7000000Y3000000D03*
D12*
X13915000Y11500000D03*
D13*
X21535000Y11500000D03*
D14*
X27780000Y44665000D03*
D15*
X29050000Y45935000D03*
X30320000Y44665000D03*
D11*
X3000000Y3000000D03*
D12*
X21535000Y45000000D03*
D13*
X13915000Y45000000D03*
D12*
X25375000Y23750000D03*
X25375000Y21250000D03*
D16*
X13925000Y23750000D03*
D13*
X13925000Y21210000D03*
X13925000Y18670000D03*
X13925000Y16130000D03*
X21545000Y16130000D03*
X21545000Y18670000D03*
X21545000Y21210000D03*
X21545000Y23750000D03*
D12*
X21585000Y35000000D03*
D13*
X13965000Y35000000D03*
D11*
X47000000Y47000000D03*
D10*
X43000000Y47000000D03*
D17*
X43400000Y27000000D03*
X43400000Y39000000D03*
D18*
X38560000Y35550000D03*
X41100000Y34530000D03*
X38560000Y33510000D03*
X41100000Y32490000D03*
X38560000Y31470000D03*
X41100000Y30450000D03*
D17*
X43400000Y11100000D03*
X43400000Y23100000D03*
D18*
X38560000Y19650000D03*
X41100000Y18630000D03*
X38560000Y17610000D03*
X41100000Y16590000D03*
X38560000Y15570000D03*
X41100000Y14550000D03*
D11*
X3000000Y47000000D03*
D12*
X25240000Y35000000D03*
D13*
X32860000Y35000000D03*
D12*
X32910000Y30000000D03*
D13*
X25290000Y30000000D03*
D10*
X43000000Y3000000D03*
D19*
X28900000Y40487500D03*
X28900000Y38612500D03*
D20*
X6000000Y8490000D03*
X6000000Y41510000D03*
X6000000Y11030000D03*
X6000000Y38970000D03*
D21*
X7270000Y42780000D03*
D22*
X7270000Y42780000D03*
D21*
X4730000Y42780000D03*
D23*
X4730000Y42780000D03*
D22*
X7270000Y40240000D03*
D21*
X7270000Y40240000D03*
X4730000Y40240000D03*
D23*
X4730000Y40240000D03*
D22*
X7270000Y37700000D03*
D21*
X7270000Y37700000D03*
X4730000Y37700000D03*
D23*
X4730000Y37700000D03*
D22*
X7270000Y35160000D03*
D21*
X7270000Y35160000D03*
X4730000Y35160000D03*
D23*
X4730000Y35160000D03*
D21*
X7270000Y32620000D03*
D22*
X7270000Y32620000D03*
D23*
X4730000Y32620000D03*
D21*
X4730000Y32620000D03*
X7270000Y30080000D03*
D22*
X7270000Y30080000D03*
D23*
X4730000Y30080000D03*
D21*
X4730000Y30080000D03*
X7270000Y27540000D03*
D22*
X7270000Y27540000D03*
D21*
X4730000Y27540000D03*
D23*
X4730000Y27540000D03*
D21*
X7270000Y25000000D03*
D22*
X7270000Y25000000D03*
D21*
X4730000Y25000000D03*
D23*
X4730000Y25000000D03*
D22*
X7270000Y22460000D03*
D21*
X7270000Y22460000D03*
X4730000Y22460000D03*
D23*
X4730000Y22460000D03*
D21*
X7270000Y19920000D03*
D22*
X7270000Y19920000D03*
D21*
X4730000Y19920000D03*
D23*
X4730000Y19920000D03*
D22*
X7270000Y17380000D03*
D21*
X7270000Y17380000D03*
X4730000Y17380000D03*
D23*
X4730000Y17380000D03*
D22*
X7270000Y14840000D03*
D21*
X7270000Y14840000D03*
D23*
X4730000Y14840000D03*
D21*
X4730000Y14840000D03*
X7270000Y12300000D03*
D22*
X7270000Y12300000D03*
D21*
X4730000Y12300000D03*
D23*
X4730000Y12300000D03*
D22*
X7270000Y9760000D03*
D21*
X7270000Y9760000D03*
D23*
X4730000Y9760000D03*
D21*
X4730000Y9760000D03*
X7270000Y7220000D03*
D22*
X7270000Y7220000D03*
D21*
X4730000Y7220000D03*
D23*
X4730000Y7220000D03*
D12*
X21610000Y6500000D03*
D13*
X13990000Y6500000D03*
D24*
X10395000Y2775000D03*
X10395000Y45955000D03*
X38335000Y3410000D03*
X38970000Y44685000D03*
X25635000Y15475000D03*
X23730000Y26905000D03*
X23730000Y31985000D03*
X47860000Y30715000D03*
X44050000Y30715000D03*
M02*
